<svg width="33" height="29" viewBox="0 0 33 29" fill="none" xmlns="http://www.w3.org/2000/svg">
<g clip-path="url(#clip0_116_37)">
<path d="M13 11H1V21H13V11Z" fill="#F50C0C"/>
<path d="M7 7C7.66304 7 8.29893 7.26339 8.76777 7.73223C9.23661 8.20107 9.5 8.83696 9.5 9.5V10H4.5V9.5C4.5 8.83696 4.76339 8.20107 5.23223 7.73223C5.70107 7.26339 6.33696 7 7 7ZM10.5 10V9.5C10.5 8.57174 10.1313 7.6815 9.47487 7.02513C8.8185 6.36875 7.92826 6 7 6C6.07174 6 5.1815 6.36875 4.52513 7.02513C3.86875 7.6815 3.5 8.57174 3.5 9.5V10H0V20C0 20.5304 0.210714 21.0391 0.585786 21.4142C0.960859 21.7893 1.46957 22 2 22H12C12.5304 22 13.0391 21.7893 13.4142 21.4142C13.7893 21.0391 14 20.5304 14 20V10H10.5ZM1 11H13V20C13 20.2652 12.8946 20.5196 12.7071 20.7071C12.5196 20.8946 12.2652 21 12 21H2C1.73478 21 1.48043 20.8946 1.29289 20.7071C1.10536 20.5196 1 20.2652 1 20V11Z" fill="#0A0000"/>
</g>
<path d="M30.3977 16.8636L19.4205 22.4545V20.2727L27.8409 16.2159L27.7727 16.3523V16.0114L27.8409 16.1477L19.4205 12.0909V9.90909L30.3977 15.5V16.8636Z" fill="black"/>
<path d="M19.3409 8.81818L15.5909 22.75H14.3636L18.1136 8.81818H19.3409Z" fill="black"/>
<defs>
<clipPath id="clip0_116_37">
<rect width="14" height="16" fill="white" transform="translate(0 6)"/>
</clipPath>
</defs>
</svg>
